<svg class="h-[30px] text-[#3F3F46]" xmlns="http://www.w3.org/2000/svg" viewBox="0 0 30 30"><g fill="currentColor"><path d="M15.47 0A14.52 14.52 0 0 1 30 14.42a14.24 14.24 0 0 1-4.26 10.2 14.49 14.49 0 0 1-10.63 4.21 1.49 1.49 0 0 1-1.4-1.1 3.37 3.37 0 0 0-1.86-2.2 1.32 1.32 0 0 1-.75-1.5 3.35 3.35 0 0 0-3.28-4.06h-.03c-.47 0-.93.1-1.36.3a1.24 1.24 0 0 1-1.67-.72 3.37 3.37 0 0 0-2.48-2.19 1.59 1.59 0 0 1-1.25-1.38 14.5 14.5 0 0 1 1.05-7.17 14.36 14.36 0 0 1 7.74-7.68A14.47 14.47 0 0 1 15.47 0Zm0 27.57a13.25 13.25 0 0 0 12.21-8.03 12.98 12.98 0 0 0 0-10.24 13.12 13.12 0 0 0-7.05-7 13.24 13.24 0 0 0-10.32 0A13.22 13.22 0 0 0 2.3 15.85a.3.3 0 0 0 .25.27 4.65 4.65 0 0 1 3.4 2.97 4.8 4.8 0 0 1 1.83-.39h.04a4.62 4.62 0 0 1 4.52 5.61c0 .03.01.05.04.06a4.67 4.67 0 0 1 2.57 3.04c.02.1.1.15.2.16h.32Z"></path><path d="M12.74 3.41a2 2 0 0 0 0 2.84c.8.79 2.07.79 2.87 0a2 2 0 0 0 0-2.84 2.04 2.04 0 0 0-2.87 0Zm-5.8 7.35c-.84.84-.84 2.2 0 3.03.84.84 2.21.84 3.05 0 .85-.84.85-2.2 0-3.03a2.17 2.17 0 0 0-3.05 0Zm8.71 2.19c-.81 0-1.48.66-1.48 1.47 0 .8.67 1.47 1.48 1.47.82 0 1.48-.66 1.48-1.47 0-.81-.66-1.47-1.48-1.47Zm7.78 1.12a2.88 2.88 0 0 0-2.89 2.87 2.89 2.89 0 0 0 5.78 0c0-1.59-1.3-2.87-2.89-2.87Zm-6.29 7.23a1.46 1.46 0 0 0-.77 1.92c.32.75 1.2 1.09 1.94.77.75-.32 1.1-1.19.77-1.93a1.48 1.48 0 0 0-1.94-.77Zm4.68-13.5a1.6 1.6 0 1 0 0 3.2 1.6 1.6 0 1 0 0-3.2Z"></path></g><defs><clipPath><path fill="#fff" d="M30 30H0V0h30z"></path></clipPath></defs></svg>