<svg width="500" height="422" viewBox="0 0 500 422" fill="none" xmlns="http://www.w3.org/2000/svg">
<path d="M0.070876 42.7284C0.956826 39.4912 1.7719 36.1731 2.76416 32.9763C8.89494 13.7151 24.8066 0.280756 42.7382 0.199826C87.2129 -0.00249783 131.652 -0.123892 176.127 0.199826C199.339 0.361686 218.44 22.2532 218.546 48.7981C218.794 104.761 218.865 160.724 218.475 216.727C218.334 236.029 215.002 254.724 208.127 272.731C194.767 307.773 174.779 365.634 161.667 400.838C156.599 414.435 147.315 421.637 134.344 421.84C119.035 422.123 103.691 421.961 88.3459 421.88C77.679 421.84 71.2648 412.735 73.3202 400.798C82.1908 350.152 94.7612 295.795 101.778 254.521C101.991 253.186 102.061 251.77 102.274 249.666H97.3128C80.3025 249.666 63.3277 249.666 46.3175 249.666C22.4323 249.666 6.20165 234.896 0.70876 208.27C0.602446 207.825 0.248066 207.42 0 207.016C0 152.226 0 97.4773 0 42.6879L0.070876 42.7284Z" fill="black"/>
<path d="M383.6 249.665C381.686 249.665 380.055 249.665 378.389 249.665C361.092 249.665 343.794 249.705 326.461 249.665C300.302 249.584 281.339 228.015 281.303 198.19C281.232 149.305 281.232 100.461 281.303 51.576C281.339 21.7513 300.267 0.101169 326.426 0.0607014C369.244 -0.0202338 412.027 -0.0202338 454.846 0.0607014C481.005 0.101169 499.897 21.7109 499.933 51.6164C500.004 104.669 500.039 157.682 499.933 210.735C499.862 232.911 496.566 254.319 488.661 274.876C475.44 309.274 455.5 366.491 442.598 401.05C437.6 414.445 428.349 421.567 415.624 421.81C400.134 422.134 384.644 421.972 369.19 421.85C358.804 421.769 352.353 412.624 354.338 401.05C361.392 359.773 376.085 296.081 383.104 254.804C383.352 253.307 383.458 251.769 383.671 249.705L383.6 249.665Z" fill="black"/>
</svg>
