<svg width="24" height="25" viewBox="0 0 24 25" fill="none" xmlns="http://www.w3.org/2000/svg">
<g clip-path="url(#clip0_1623_1239)">
<path d="M12 0.742676C5.37281 0.742676 0 6.11361 0 12.7427C0 19.3717 5.37281 24.7427 12 24.7427C18.6272 24.7427 24 19.3685 24 12.7427C24 6.11689 18.6272 0.742676 12 0.742676Z" fill="#2AD352"/>
<path d="M1.11441e-05 12.7427C-0.00269773 14.7262 0.488482 16.6791 1.42923 18.4254C2.62777 18.7772 3.87057 18.9555 5.1197 18.9546C12.3338 18.9546 18.1819 13.1064 18.1819 5.89238C18.183 4.62345 17.9992 3.36113 17.6363 2.14519C15.9015 1.22116 13.9655 0.739419 12 0.742692C5.37282 0.742692 1.11441e-05 6.11363 1.11441e-05 12.7427Z" fill="#74DA7F"/>
<path d="M18.8438 10.7543L11.6311 18.3289C11.4346 18.5351 11.1984 18.6995 10.9368 18.8122C10.6752 18.925 10.3935 18.9838 10.1086 18.9851H10.0992C9.81595 18.9852 9.53553 18.9284 9.27464 18.818C9.01374 18.7076 8.77769 18.5459 8.5805 18.3425L4.75315 14.4003C4.5554 14.2018 4.39904 13.966 4.29315 13.7066C4.18726 13.4471 4.13395 13.1693 4.13631 12.8891C4.13867 12.6089 4.19665 12.332 4.3069 12.0744C4.41714 11.8168 4.57746 11.5836 4.77853 11.3885C4.9796 11.1934 5.21742 11.0401 5.4782 10.9376C5.73898 10.8351 6.01752 10.7854 6.29765 10.7915C6.57779 10.7975 6.85393 10.8591 7.11007 10.9727C7.3662 11.0863 7.59722 11.2496 7.78971 11.4532L10.0842 13.8167L15.7791 7.83637C15.9699 7.63182 16.1993 7.46711 16.4541 7.35179C16.709 7.23646 16.9841 7.17281 17.2637 7.16451C17.5433 7.1562 17.8218 7.20342 18.083 7.30341C18.3442 7.40341 18.583 7.55421 18.7856 7.74709C18.9882 7.93996 19.1505 8.17109 19.2632 8.4271C19.3758 8.68311 19.4367 8.95892 19.4421 9.23857C19.4475 9.51823 19.3974 9.79619 19.2947 10.0564C19.192 10.3165 19.0387 10.5538 18.8438 10.7543Z" fill="white"/>
</g>
<defs>
<clipPath id="clip0_1623_1239">
<rect width="24" height="24" fill="white" transform="translate(0 0.742676)"/>
</clipPath>
</defs>
</svg>
