<svg width="169" height="24" viewBox="0 0 169 24" fill="none" xmlns="http://www.w3.org/2000/svg">
<path d="M6.26207 23.9088C5.64449 24.2256 4.94372 23.6704 5.06851 22.9616L6.39647 15.3939L0.759865 10.0245C0.233484 9.52207 0.507074 8.6037 1.21265 8.5045L9.04918 7.39094L12.5435 0.467984C12.8586 -0.155995 13.7114 -0.155995 14.0266 0.467984L17.5209 7.39094L25.3574 8.5045C26.063 8.6037 26.3366 9.52207 25.8086 10.0245L20.1736 15.3939L21.5015 22.9616C21.6263 23.6704 20.9256 24.2256 20.308 23.9088L13.2826 20.2993L6.26047 23.9088H6.26207Z" fill="#FAB73C"/>
<path d="M41.7758 23.9088C41.1582 24.2256 40.4575 23.6704 40.5822 22.9616L41.9102 15.3939L36.2736 10.0245C35.7472 9.52207 36.0208 8.6037 36.7264 8.5045L44.5629 7.39094L48.0572 0.467984C48.3724 -0.155995 49.2251 -0.155995 49.5403 0.467984L53.0346 7.39094L60.8711 8.5045C61.5767 8.6037 61.8503 9.52207 61.3223 10.0245L55.6873 15.3939L57.0153 22.9616C57.1401 23.6704 56.4393 24.2256 55.8217 23.9088L48.7964 20.2993L41.7742 23.9088H41.7758Z" fill="#FAB73C"/>
<path d="M77.2897 23.9088C76.6721 24.2256 75.9714 23.6704 76.0962 22.9616L77.4241 15.3939L71.7875 10.0245C71.2611 9.52207 71.5347 8.6037 72.2403 8.5045L80.0768 7.39094L83.5711 0.467984C83.8863 -0.155995 84.7391 -0.155995 85.0543 0.467984L88.5485 7.39094L96.3851 8.5045C97.0906 8.6037 97.3642 9.52207 96.8362 10.0245L91.2012 15.3939L92.5292 22.9616C92.654 23.6704 91.9532 24.2256 91.3356 23.9088L84.3103 20.2993L77.2881 23.9088H77.2897Z" fill="#FAB73C"/>
<path d="M112.803 23.9088C112.186 24.2256 111.485 23.6704 111.61 22.9616L112.938 15.3939L107.301 10.0245C106.775 9.52207 107.048 8.6037 107.754 8.5045L115.59 7.39094L119.085 0.467984C119.4 -0.155995 120.253 -0.155995 120.568 0.467984L124.062 7.39094L131.899 8.5045C132.604 8.6037 132.878 9.52207 132.35 10.0245L126.715 15.3939L128.043 22.9616C128.168 23.6704 127.467 24.2256 126.849 23.9088L119.824 20.2993L112.802 23.9088H112.803Z" fill="#FAB73C"/>
<path d="M112.803 23.9088C112.186 24.2256 111.485 23.6704 111.61 22.9616L112.938 15.3939L107.301 10.0245C106.775 9.52207 107.048 8.6037 107.754 8.5045L115.59 7.39094L119.085 0.467984C119.4 -0.155995 120.253 -0.155995 120.568 0.467984L124.062 7.39094L131.899 8.5045C132.604 8.6037 132.878 9.52207 132.35 10.0245L126.715 15.3939L128.043 22.9616C128.168 23.6704 127.467 24.2256 126.849 23.9088L119.824 20.2993L112.802 23.9088H112.803Z" fill="#FAB73C"/>
<path d="M148.317 23.9088C147.7 24.2256 146.999 23.6704 147.124 22.9616L148.452 15.3939L142.815 10.0245C142.289 9.52207 142.562 8.6037 143.268 8.5045L151.104 7.39094L154.599 0.467984C154.914 -0.155995 155.767 -0.155995 156.082 0.467984L159.576 7.39094L167.413 8.5045C168.118 8.6037 168.392 9.52207 167.864 10.0245L162.229 15.3939L163.557 22.9616C163.682 23.6704 162.981 24.2256 162.363 23.9088L155.338 20.2993L148.316 23.9088H148.317Z" fill="#FAB73C"/>
</svg>
